<svg id="Layer_1" data-name="Layer 1" xmlns="http://www.w3.org/2000/svg" viewBox="0 0 15.99 16"><defs><style>.cls-1{fill:#1d71b8;}.cls-2{fill:#2d2e83;}.cls-3{fill:#36a9e1;}.cls-4{fill:#a8dbf2;}</style></defs><title>LOGOCRIPTO</title><path class="cls-1" d="M5.31,5.9V2.31a1.66,1.66,0,0,1,2-2H9.88s1.42-.06,1.42,2V5.9H10.14V2.31s.07-.65-.85-.65H7.53s-.85-.07-.85.65V5.9Z"/><path class="cls-2" d="M6.89.35h0Z"/><path class="cls-2" d="M7.15,1.65s-.85-.07-.85.65V5.9h.38V2.31a.67.67,0,0,1,.74-.65Z"/><path class="cls-2" d="M9.88.34H9.55c.25,0,1.38.16,1.38,2V5.9h.38V2.31C11.3.28,9.88.34,9.88.34Z"/><path class="cls-3" d="M7.66.35h0Z"/><path class="cls-3" d="M7.27.35h0a1.66,1.66,0,0,0-2,2V5.9H5.7V2.31A1.64,1.64,0,0,1,7.27.35Z"/><path class="cls-3" d="M7.81,1.65h0Z"/><path class="cls-3" d="M9.69,1.65H9.27c.91,0,.85.65.85.65V5.9h.42V2.31S10.6,1.65,9.69,1.65Z"/><path class="cls-3" d="M13.33,9.94V5.65c0-.73-.59-1.32-1.66-1.32H4A1.32,1.32,0,0,0,3,5.65V7a0,0,0,0,0,0,0h1.2A.76.76,0,0,1,5,7.83v1.9a.76.76,0,0,1-.76.76H3a0,0,0,0,0,0,0v2.81a1.32,1.32,0,0,0,1.32,1.32H12a1.3,1.3,0,0,0,1.3-1.17,0,0,0,0,0,0,0H12a.7.7,0,0,1-.7-.7V10.64A.68.68,0,0,1,12,10h1.29A0,0,0,0,0,13.33,9.94Z"/><path class="cls-4" d="M3.51,13.79V11a0,0,0,0,1,0,0h1.2a.76.76,0,0,0,.76-.76V8.3a.76.76,0,0,0-.54-.73.76.76,0,0,1,0,.26v1.9a.76.76,0,0,1-.76.76H3a0,0,0,0,0,0,0v2.81a1.32,1.32,0,0,0,.69,1.16A1.32,1.32,0,0,1,3.51,13.79Z"/><path class="cls-4" d="M3,7.07h.47V6.12a1.32,1.32,0,0,1,1-1.32h7.67a2.05,2.05,0,0,1,1,.23,1.64,1.64,0,0,0-1.49-.7H4A1.32,1.32,0,0,0,3,5.65V7A0,0,0,0,0,3,7.07Z"/><path class="cls-1" d="M3,7.07h.7a2.54,2.54,0,0,1,1.14.36,1.66,1.66,0,0,0-1.12-.91H3V7A0,0,0,0,0,3,7.07Z"/><path class="cls-1" d="M13.3,13.45h-.64a1.3,1.3,0,0,1-1.13.65H3.85a1.32,1.32,0,0,1-.7-.2,1.32,1.32,0,0,0,1.19.75H12a1.3,1.3,0,0,0,1.3-1.17A0,0,0,0,0,13.3,13.45Z"/><path class="cls-1" d="M12.73,4.59a1.23,1.23,0,0,1,.11.51V9.4a0,0,0,0,1,0,0H11.53a.68.68,0,0,0-.68.68v2.45c0,.32.42.91.89.88a1.59,1.59,0,0,1-.41-.92V10.64A.68.68,0,0,1,12,10h1.29a0,0,0,0,0,0,0V5.65A1.21,1.21,0,0,0,12.73,4.59Z"/><path class="cls-2" d="M9.58,11.43,9,10.1a.37.37,0,0,1,0-.36A1.92,1.92,0,0,0,9.41,8.6c0-.85-.47-1.54-1-1.54s-1,.69-1,1.54a1.85,1.85,0,0,0,.42,1.23.37.37,0,0,1,.08.38l-.45,1.24a.38.38,0,0,0,.35.5H9.23A.38.38,0,0,0,9.58,11.43Z"/><path class="cls-1" d="M9.13,11.14,8.77,10a.31.31,0,0,1,0-.25A1.85,1.85,0,0,0,9,8.86c0-.68-.29-1.23-.65-1.23s-.65.55-.65,1.23a1.75,1.75,0,0,0,.27,1,.31.31,0,0,1,0,.27l-.29,1a.31.31,0,0,0,.29.39h.8A.31.31,0,0,0,9.13,11.14Z"/><path class="cls-3" d="M3.53,7.41H2.36a.79.79,0,0,0-.79.79V9.38a.79.79,0,0,0,.79.79H3.53a.79.79,0,0,0,.79-.79V8.2A.79.79,0,0,0,3.53,7.41ZM3.25,9.7h-.4V8.49l-.3.1-.09-.31L3,8.07h.23Z"/><path class="cls-3" d="M13.86,10.29H12.57a.76.76,0,0,0-.76.76v1.29a.76.76,0,0,0,.76.76h1.29a.76.76,0,0,0,.76-.76V11.06A.76.76,0,0,0,13.86,10.29Zm-.06,1.78a.78.78,0,0,1-.12.27.57.57,0,0,1-.21.17.71.71,0,0,1-.58,0,.57.57,0,0,1-.21-.17.77.77,0,0,1-.12-.27,1.44,1.44,0,0,1,0-.69.78.78,0,0,1,.12-.27.57.57,0,0,1,.21-.17.71.71,0,0,1,.58,0,.57.57,0,0,1,.21.17.78.78,0,0,1,.12.27,1.44,1.44,0,0,1,0,.69Z"/><path class="cls-3" d="M13.18,11.21a.21.21,0,0,0-.21.14,1.33,1.33,0,0,0,0,.79.23.23,0,0,0,.41,0,1.33,1.33,0,0,0,0-.79A.21.21,0,0,0,13.18,11.21Z"/><path class="cls-4" d="M12.2,12.38V11.09a.76.76,0,0,1,.76-.76h1.09a.76.76,0,0,0-.22,0H12.53a.76.76,0,0,0-.76.76v1.29a.76.76,0,0,0,.76.76h.2A.76.76,0,0,1,12.2,12.38Z"/><path class="cls-1" d="M3.69,7.41H3.11a.79.79,0,0,1,.79.79V9.38a.79.79,0,0,1-.79.79h.58a.79.79,0,0,0,.79-.79V8.2A.79.79,0,0,0,3.69,7.41Z"/><path class="cls-4" d="M2,9.38V8.2a.79.79,0,0,1,.79-.79H2.33a.79.79,0,0,0-.79.79V9.38a.79.79,0,0,0,.79.79h.42A.79.79,0,0,1,2,9.38Z"/><path class="cls-1" d="M13.89,10.29h-.3a.76.76,0,0,1,.76.76v1.29a.76.76,0,0,1-.76.76h.3a.76.76,0,0,0,.76-.76V11.06A.76.76,0,0,0,13.89,10.29Z"/></svg>